<svg width="200" height="235" viewBox="0 0 200 235" fill="none" xmlns="http://www.w3.org/2000/svg">
<mask id="mask0_5_65" style="mask-type:luminance" maskUnits="userSpaceOnUse" x="0" y="0" width="200" height="235">
<path d="M200 0H0V235H200V0Z" fill="#f1f1f1"/>
</mask>
<g mask="url(#mask0_5_65)">
<path d="M64.8752 237.519C53.4601 234.552 43.8404 229.505 37.0635 222.912C30.7895 216.822 27.1576 209.525 26.8385 202.362C26.2946 190.233 33.3416 177.385 49.0183 161.962C54.1267 156.932 59.7709 151.951 65.2228 147.134C73.3046 139.986 81.6605 132.622 88.4335 124.957C101.808 109.833 106.335 95.997 101.89 83.8333C98.1022 73.4673 87.7341 64.1063 77.7095 55.0528C75.6032 53.1512 73.4232 51.1845 71.3455 49.2439C59.1038 37.8012 48.8609 25.7907 40.7445 13.3614C32.6322 0.929786 26.6811 -11.8682 22.9653 -24.8731L23.3334 -24.9013C27.0495 -11.911 32.9979 0.872497 41.1042 13.2899C49.2065 25.7097 59.4331 37.7116 71.6564 49.1464C73.7341 51.0957 75.91 53.0451 78.0163 54.9532C88.0613 64.0218 98.4457 73.398 102.241 83.7965C106.703 96.0013 102.168 109.878 88.7443 125.042C81.9631 132.709 73.6114 140.093 65.5132 147.236C60.0613 152.05 54.4212 157.03 49.3169 162.055C33.6729 177.448 26.6422 190.255 27.1821 202.358C27.5052 209.488 31.1208 216.754 37.3661 222.817C44.1185 229.371 53.685 234.394 65.0265 237.341L64.8752 237.519Z" fill="#f1f1f1"/>
<path d="M58.3886 239.143C45.9673 235.572 36.0084 229.18 30.3356 221.166C26.6396 215.852 24.8772 210.215 25.1413 204.554C25.2507 202.265 25.6222 199.982 26.2538 197.716C28.9368 188.041 36.3724 177.619 48.9898 165.854C54.8712 160.367 61.3048 154.933 67.5297 149.679C74.8467 143.499 82.4131 137.117 89.0757 130.636C96.7772 123.142 104.466 114.998 108.393 106.237C111.018 100.337 111.816 94.6433 110.769 89.313C110.133 86.1397 108.9 83.0083 107.088 79.965C102.18 71.6696 93.2025 63.907 84.5113 56.4C83.1207 55.2001 81.6892 53.9612 80.2986 52.7439C68.2741 42.2047 60.045 33.383 54.4009 24.9815C49.1089 17.0341 45.5694 8.78935 43.8528 0.411487C41.996 -8.42972 42.2496 -16.6125 42.6013 -21.9969H42.9735C42.6217 -16.6168 42.3723 -8.44488 44.2209 0.383331C45.9354 8.74856 49.4696 16.9809 54.7526 24.9165C60.3845 33.3028 68.6054 42.1137 80.6176 52.64C82.0042 53.8572 83.4397 55.0961 84.8262 56.2939C93.5297 63.8117 102.532 71.5851 107.444 79.9021C109.258 82.9584 110.491 86.1031 111.125 89.2892C112.176 94.6389 111.374 100.355 108.736 106.278C104.802 115.063 97.1125 123.22 89.3866 130.727C82.7158 137.207 75.1493 143.599 67.8283 149.787C61.6074 155.039 55.1739 160.471 49.2966 165.953C36.7201 177.697 29.2927 188.095 26.6219 197.747C25.9918 200.004 25.6217 202.279 25.5136 204.56C25.2506 210.197 27.0062 215.809 30.6873 221.099C36.3233 229.074 46.2291 235.422 58.5645 238.97L58.3886 239.143Z" fill="#f1f1f1"/>
<path d="M51.8938 240.768C40.2905 237.068 31.3538 230.688 26.7322 222.791C23.7706 217.595 22.6611 212.154 23.4602 206.744C23.7773 204.547 24.3345 202.361 25.1289 200.198C28.5359 190.855 36.3396 180.892 48.9776 169.744C56.2905 163.291 64.27 156.922 71.9837 150.762C77.9019 146.038 84.0165 141.154 89.7343 136.311L91.4602 134.868C100.021 127.63 108.871 120.14 114.131 112.126C118.033 106.129 119.894 100.301 119.665 94.7993C119.531 91.4683 118.675 88.1567 117.113 84.9292C112.532 75.4318 101.98 66.7162 91.7547 58.2887C90.9367 57.6086 90.1187 56.9292 89.3007 56.2506C78.585 47.3704 67.7997 37.7105 61.4889 27.2275C56.5379 18.9241 54.3936 10.2231 55.1535 1.52483C55.7547 -5.13314 58.0165 -11.6871 62.2619 -19.1183L62.6218 -19.062C58.3805 -11.6503 56.1269 -5.10715 55.5257 1.53349C54.7604 10.2068 56.8913 18.8836 61.8201 27.1647C68.1064 37.6195 78.8754 47.2686 89.5747 56.138L92.0287 58.1761C102.254 66.6231 112.859 75.3473 117.452 84.8773C119.029 88.1211 119.895 91.4503 120.033 94.7993C120.266 100.322 118.397 106.175 114.479 112.194C109.207 120.229 100.344 127.723 91.7711 134.972L90.0451 136.432C84.3191 141.277 78.2087 146.161 72.2905 150.885C64.5768 157.045 56.6013 163.413 49.2925 169.861C36.6749 180.98 28.8835 190.922 25.4889 200.244C24.6989 202.398 24.1444 204.575 23.8283 206.763C23.0369 212.15 24.1464 217.567 27.1003 222.739C31.6934 230.582 40.5727 236.926 52.0983 240.599L51.8938 240.768Z" fill="#f1f1f1"/>
<path d="M45.4029 242.392C34.593 238.563 26.6829 232.182 23.1288 224.415C20.8802 219.345 20.4198 214.1 21.7709 208.942C22.301 206.84 23.0437 204.754 23.9958 202.693C28.1513 193.672 36.3148 184.171 48.9448 173.644C59.272 165.052 70.6013 156.662 81.5624 148.548C84.4663 146.397 87.4683 144.175 90.3845 141.998C92.5849 140.357 94.8508 138.711 97.043 137.119C105.759 130.79 113.992 124.81 119.861 118.002C125.055 111.938 127.98 105.971 128.556 100.277C128.926 96.7931 128.446 93.2991 127.129 89.8804C123.039 79.2675 110.896 69.7137 99.1616 60.474L98.2291 59.7398C86.4458 50.4503 74.4499 40.4633 68.5277 29.4627C63.8364 20.7406 63.0839 11.2128 66.409 2.62937C69.9878 -6.59086 77.6483 -13.16 81.8937 -16.2529L82.1964 -16.1381C77.9673 -13.0561 70.3354 -6.51505 66.7771 2.67053C63.4602 11.2215 64.2086 20.7168 68.8876 29.4085C74.7935 40.3788 86.773 50.3528 98.5358 59.6293L99.4683 60.3636C111.223 69.625 123.362 79.2047 127.493 89.8458C128.814 93.2794 129.297 96.7888 128.928 100.288C128.348 106.006 125.411 111.994 120.2 118.085C114.315 124.91 106.07 130.896 97.3416 137.236C95.1493 138.825 92.8876 140.471 90.6872 142.113C87.771 144.279 84.769 146.512 81.8651 148.663C70.9121 156.774 59.5829 165.163 49.2679 173.751C36.6543 184.251 28.503 193.74 24.3558 202.739C23.4077 204.793 22.669 206.872 22.1431 208.968C20.7937 214.106 21.2499 219.332 23.4887 224.381C27.0224 232.087 34.8793 238.426 45.6115 242.228L45.4029 242.392Z" fill="#f1f1f1"/>
<path d="M38.912 244.017C28.8834 240.051 21.9959 233.672 19.5214 226.053C18.0081 221.305 18.2004 216.284 20.0899 211.134C20.8262 209.125 21.7531 207.137 22.867 205.178C27.775 196.473 36.3231 187.432 48.9408 177.536C50.4459 176.355 51.9453 175.172 53.4398 173.987C64.9654 164.89 76.8836 155.488 91.0431 147.671C106.053 139.384 117.354 131.604 125.587 123.885C132.074 117.764 136.066 111.665 137.448 105.756C138.322 102.13 138.22 98.456 137.145 94.8446C133.632 83.1726 119.583 72.5835 107.186 63.242C93.0962 52.6118 80.9899 42.8999 75.5952 31.7087C71.1249 22.4386 71.8897 12.2459 77.6975 3.74689C82.6054 -3.40057 91.5134 -9.81163 101.571 -13.3637L101.779 -13.2013C91.7834 -9.66219 82.9122 -3.29878 78.0574 3.8227C72.2782 12.2849 71.5134 22.4343 75.9674 31.6697C81.3375 42.8176 93.4234 52.5143 107.497 63.1294C119.914 72.4904 133.996 83.1033 137.518 94.8143C138.598 98.4444 138.7 102.137 137.82 105.782C136.438 111.717 132.434 117.84 125.922 123.976C117.669 131.708 106.352 139.501 91.3212 147.801C77.1821 155.598 65.2721 165.002 53.7588 174.088C52.2537 175.275 50.7539 176.459 49.2598 177.64C36.6625 187.519 28.1513 196.542 23.2351 205.227C22.1239 207.18 21.1998 209.162 20.4662 211.164C18.5848 216.293 18.3967 221.29 19.9018 226.014C22.3558 233.581 29.1901 239.914 39.1452 243.85L38.912 244.017Z" fill="#f1f1f1"/>
<path d="M32.4174 245.639C23.1454 241.535 17.2845 235.158 15.9225 227.684C15.1045 223.135 15.9471 218.297 18.4051 213.328C19.2968 211.502 20.3888 209.646 21.7385 207.666C27.4644 199.271 36.3601 190.69 48.9246 181.433C62.2289 171.679 76.507 162.309 91.6976 153.361C96.127 150.74 100.79 148.202 105.301 145.745C114.888 140.521 123.947 135.59 131.334 129.774C139.105 123.614 144.164 117.381 146.348 111.243C147.728 107.476 148.004 103.618 147.166 99.8068C144.54 88.1001 131.567 77.9074 116.152 66.7422C102.957 57.1797 88.0043 46.3394 82.6546 33.9526C78.4215 24.1346 80.7855 13.2596 89.0064 4.86241C96.2824 -2.59045 108.638 -8.47088 121.268 -10.4852L121.379 -10.2946C108.847 -8.29761 96.5687 -2.45402 89.3376 4.95338C81.1577 13.3094 78.8223 24.1346 83.0432 33.9093C88.3601 46.2549 103.305 57.0844 116.475 66.6144C131.923 77.8012 144.925 88.0199 147.559 99.7721C148.401 103.604 148.125 107.481 146.741 111.269C144.548 117.433 139.477 123.692 131.669 129.874C124.266 135.702 115.194 140.643 105.595 145.871C101.096 148.327 96.4256 150.866 92.0002 153.482C76.8088 162.429 62.5295 171.798 49.2231 181.55C36.6833 190.79 27.808 199.356 22.0902 207.733C20.7446 209.713 19.6567 211.558 18.7651 213.378C16.3111 218.325 15.4931 223.124 16.2906 227.673C17.6485 235.095 23.4604 241.424 32.6505 245.496L32.4174 245.639Z" fill="#f1f1f1"/>
<path d="M25.9223 247.263C17.3947 243.009 12.5645 236.633 12.3191 229.301C12.1964 224.944 13.6769 220.304 16.724 215.511C17.8037 213.8 19.0757 212.046 20.6094 210.146C27.0962 202.165 36.6135 193.811 48.9245 185.334C62.3011 176.077 76.8079 167.294 92.3519 159.042C97.6238 156.252 103.19 153.58 108.577 150.996C118.499 146.231 128.761 141.305 137.068 135.659C146.127 129.475 152.246 123.097 155.243 116.725C157.128 112.823 157.787 108.784 157.194 104.769C155.239 92.2066 140.908 81.271 125.121 70.2422L125.002 70.1578C110.074 59.7246 94.6422 48.932 89.722 36.1943C85.6688 25.6875 89.6116 14.3924 100.274 5.98003C110.09 -1.77389 125.673 -6.97204 140.916 -7.58716L140.945 -7.39006C125.812 -6.78144 110.348 -1.61578 100.581 6.08832C89.9756 14.4574 86.0533 25.707 90.0901 36.1553C94.9981 48.8518 110.397 59.6228 125.297 70.0386L125.415 70.1231C141.239 81.1692 155.603 92.1438 157.562 104.752C158.161 108.789 157.499 112.851 155.603 116.774C152.593 123.179 146.454 129.575 137.362 135.78C129.035 141.44 118.761 146.371 108.826 151.141C103.444 153.725 97.8774 156.395 92.6136 159.181C77.0754 167.425 62.5739 176.2 49.2026 185.449C36.9326 193.919 27.4233 202.258 20.953 210.231C19.4192 212.126 18.1514 213.876 17.0757 215.583C14.045 220.348 12.5767 224.972 12.6912 229.306C12.9366 236.577 17.726 242.901 26.1882 247.118L25.9223 247.263Z" fill="#f1f1f1"/>
<path d="M19.4313 248.883C11.7421 244.536 7.84027 237.995 8.71553 230.937C9.25949 226.733 11.329 222.405 15.0427 217.712C16.2983 216.116 17.7503 214.463 19.4844 212.641C26.8464 204.924 36.7523 197.047 48.8916 189.222C62.3979 180.473 77.1455 172.283 93.0061 164.723C98.957 161.907 105.235 159.217 111.309 156.62C122.188 151.966 133.431 147.153 142.802 141.548C152.99 135.434 160.388 128.745 164.135 122.211C166.524 118.177 167.565 113.954 167.211 109.731C165.963 96.35 150.159 84.6065 134.082 73.7402L133.227 73.1597C117.538 62.5468 101.325 51.5809 96.7893 38.4382C92.9897 27.4051 98.6502 15.3952 111.562 7.09766C117.741 3.13294 125.565 -0.022474 134.425 -2.12258C143.014 -4.14337 152.037 -5.02923 160.573 -4.68701L160.548 -4.4899C152.074 -4.82994 143.092 -3.94842 134.577 -1.94064C125.768 0.14578 117.99 3.28204 111.849 7.22328C99.002 15.4775 93.3742 27.4246 97.1533 38.4122C101.652 51.5051 117.861 62.4537 133.517 73.0471L134.376 73.6276C150.495 84.5264 166.335 96.2915 167.587 109.729C167.942 113.975 166.896 118.221 164.495 122.276C160.712 128.838 153.309 135.551 143.084 141.687C133.677 147.305 122.433 152.124 111.546 156.781C105.476 159.38 99.1983 162.063 93.2556 164.879C77.4077 172.431 62.6723 180.613 49.1779 189.354C37.0591 197.166 27.1818 205.035 19.8157 212.745C18.0898 214.556 16.6378 216.211 15.3863 217.803C11.7053 222.477 9.62759 226.783 9.08772 230.965C8.21655 237.969 12.0857 244.456 19.7217 248.764L19.4313 248.883Z" fill="#f1f1f1"/>
<path d="M12.9326 250.506C5.9551 245.992 3.11665 239.46 5.11256 232.563C6.28638 228.578 8.98577 224.437 13.358 219.904C14.7813 218.427 16.4173 216.871 18.3559 215.128C26.7077 207.66 36.9735 200.255 48.8713 193.116C62.5457 184.88 77.5322 177.283 93.6647 170.406C100.09 167.682 106.847 165.08 113.383 162.564C125.44 157.922 137.922 153.12 148.556 147.435C160.008 141.31 168.466 134.483 173.055 127.695C175.937 123.535 177.36 119.131 177.256 114.7C176.736 100.506 159.333 87.9247 143.063 77.2446L141.579 76.2743C125.088 65.4557 108.041 54.271 103.869 40.6886C100.278 28.9711 107.55 16.5324 122.867 8.22613C130.362 4.18255 139.593 1.15827 149.771 -0.589079C159.877 -2.33263 170.413 -2.74198 180.237 -1.77816L180.172 -1.58323C170.405 -2.54272 159.935 -2.13337 149.886 -0.402812C139.761 1.33255 130.577 4.33741 123.117 8.35608C107.89 16.6103 100.646 28.9927 104.221 40.6518C108.372 54.1821 125.391 65.343 141.849 76.1444L143.333 77.1168C159.64 87.8229 177.088 100.437 177.607 114.691C177.715 119.149 176.284 123.579 173.383 127.764C168.777 134.578 160.295 141.429 148.802 147.576C138.168 153.272 125.669 158.078 113.595 162.737C107.051 165.252 100.311 167.851 93.8938 170.573C77.7825 177.438 62.8152 185.023 49.1576 193.246C37.2721 200.376 27.0185 207.77 18.679 215.228C16.7445 216.96 15.1126 218.52 13.6933 219.993C9.33751 224.508 6.65448 228.63 5.48475 232.594C3.49292 239.427 6.30274 245.91 13.2271 250.382L12.9326 250.506Z" fill="#f1f1f1"/>
<path d="M6.44569 252.128C0.167571 247.434 -1.62793 240.896 1.53771 234.19C4.4416 227.995 10.8056 222.563 17.2514 217.614C38.1971 201.509 64.2769 187.457 94.3232 176.088C100.933 173.586 107.845 171.173 114.528 168.84C128.086 164.108 142.11 159.213 154.278 153.324C166.446 147.435 187.027 135.176 187.264 119.655C187.37 112.98 183.808 106.205 176.38 98.9404C169.522 92.2261 160.217 85.9753 152.012 80.7469L149.967 79.4473C132.642 68.4012 114.728 56.9783 110.908 42.9303C109.302 36.7562 110.603 30.4675 114.695 24.6241C118.699 18.7612 125.379 13.5135 134.139 9.34802C143.013 5.25633 153.633 2.3691 165.083 0.935242C176.533 -0.498607 188.47 -0.436023 199.865 1.1176L199.771 1.30819C188.439 -0.237523 176.568 -0.300516 165.18 1.12465C153.793 2.54982 143.231 5.42038 134.405 9.4888C125.692 13.6316 119.049 18.8511 115.068 24.6826C110.997 30.4974 109.706 36.7549 111.309 42.8978C115.113 56.8895 132.986 68.2908 150.286 79.3174L152.331 80.6169C160.544 85.8605 169.869 92.1287 176.74 98.8516C184.2 106.144 187.783 112.952 187.673 119.662C187.432 135.256 166.814 147.539 154.564 153.473C142.372 159.373 128.335 164.273 114.765 169.009C108.086 171.342 101.178 173.753 94.5726 176.252C64.5567 187.607 38.5031 201.642 17.5786 217.729C11.1533 222.663 4.8097 228.078 1.91809 234.242C-1.20257 240.893 0.572479 247.372 6.78516 252.017L6.44569 252.128Z" fill="#f1f1f1"/>
</g>
</svg>
